<mxfile host="app.diagrams.net" modified="2024-01-10T15:10:07.778Z" agent="Mozilla/5.0 (Windows NT 10.0; Win64; x64) AppleWebKit/537.36 (KHTML, like Gecko) Chrome/120.0.0.0 Safari/537.36 Edg/120.0.0.0" etag="hv5QaxWsfBXsFCQCDOjg" version="22.1.17" type="device">
  <diagram id="C5RBs43oDa-KdzZeNtuy" name="Page-1">
    <mxGraphModel dx="2846" dy="2325" grid="1" gridSize="10" guides="1" tooltips="1" connect="1" arrows="1" fold="1" page="1" pageScale="1" pageWidth="827" pageHeight="1169" math="0" shadow="0">
      <root>
        <mxCell id="WIyWlLk6GJQsqaUBKTNV-0" />
        <mxCell id="WIyWlLk6GJQsqaUBKTNV-1" parent="WIyWlLk6GJQsqaUBKTNV-0" />
        <mxCell id="5I8DZp1YDCNz_HJZqCoI-16" style="edgeStyle=orthogonalEdgeStyle;rounded=0;orthogonalLoop=1;jettySize=auto;html=1;entryX=0;entryY=0.5;entryDx=0;entryDy=0;" parent="WIyWlLk6GJQsqaUBKTNV-1" target="5I8DZp1YDCNz_HJZqCoI-18" edge="1">
          <mxGeometry relative="1" as="geometry">
            <mxPoint x="-333" y="-954" as="targetPoint" />
            <mxPoint x="-89.97142857142853" y="-820" as="sourcePoint" />
          </mxGeometry>
        </mxCell>
        <mxCell id="5I8DZp1YDCNz_HJZqCoI-17" value="Yes" style="edgeLabel;html=1;align=center;verticalAlign=middle;resizable=0;points=[];" parent="5I8DZp1YDCNz_HJZqCoI-16" vertex="1" connectable="0">
          <mxGeometry x="-0.0897" relative="1" as="geometry">
            <mxPoint as="offset" />
          </mxGeometry>
        </mxCell>
        <mxCell id="5I8DZp1YDCNz_HJZqCoI-40" value="" style="edgeStyle=orthogonalEdgeStyle;rounded=0;orthogonalLoop=1;jettySize=auto;html=1;entryX=0;entryY=0.5;entryDx=0;entryDy=0;entryPerimeter=0;startArrow=classic;startFill=1;" parent="WIyWlLk6GJQsqaUBKTNV-1" target="5I8DZp1YDCNz_HJZqCoI-39" edge="1">
          <mxGeometry relative="1" as="geometry">
            <mxPoint x="-418" y="-703.9714285714285" as="sourcePoint" />
            <mxPoint x="-228" y="-994" as="targetPoint" />
            <Array as="points">
              <mxPoint x="-393" y="-704" />
              <mxPoint x="-393" y="-704" />
            </Array>
          </mxGeometry>
        </mxCell>
        <mxCell id="5I8DZp1YDCNz_HJZqCoI-41" value="No" style="edgeLabel;html=1;align=center;verticalAlign=middle;resizable=0;points=[];" parent="5I8DZp1YDCNz_HJZqCoI-40" vertex="1" connectable="0">
          <mxGeometry x="-0.5086" relative="1" as="geometry">
            <mxPoint x="24" as="offset" />
          </mxGeometry>
        </mxCell>
        <mxCell id="5I8DZp1YDCNz_HJZqCoI-42" style="edgeStyle=orthogonalEdgeStyle;rounded=0;orthogonalLoop=1;jettySize=auto;html=1;entryX=0.38;entryY=1.017;entryDx=0;entryDy=0;entryPerimeter=0;" parent="WIyWlLk6GJQsqaUBKTNV-1" source="5I8DZp1YDCNz_HJZqCoI-39" edge="1">
          <mxGeometry relative="1" as="geometry">
            <mxPoint x="-65.39999999999986" y="-958.6399999999999" as="targetPoint" />
          </mxGeometry>
        </mxCell>
        <mxCell id="5I8DZp1YDCNz_HJZqCoI-43" value="Yes" style="edgeLabel;html=1;align=center;verticalAlign=middle;resizable=0;points=[];" parent="5I8DZp1YDCNz_HJZqCoI-42" vertex="1" connectable="0">
          <mxGeometry x="0.0003" y="2" relative="1" as="geometry">
            <mxPoint as="offset" />
          </mxGeometry>
        </mxCell>
        <mxCell id="5I8DZp1YDCNz_HJZqCoI-56" value="" style="edgeStyle=orthogonalEdgeStyle;rounded=0;orthogonalLoop=1;jettySize=auto;html=1;" parent="WIyWlLk6GJQsqaUBKTNV-1" target="5I8DZp1YDCNz_HJZqCoI-55" edge="1">
          <mxGeometry relative="1" as="geometry">
            <mxPoint x="-293" y="-544" as="targetPoint" />
            <mxPoint x="-418" y="-544" as="sourcePoint" />
          </mxGeometry>
        </mxCell>
        <mxCell id="5I8DZp1YDCNz_HJZqCoI-57" value="No" style="edgeLabel;html=1;align=center;verticalAlign=middle;resizable=0;points=[];" parent="5I8DZp1YDCNz_HJZqCoI-56" vertex="1" connectable="0">
          <mxGeometry x="-0.2876" relative="1" as="geometry">
            <mxPoint as="offset" />
          </mxGeometry>
        </mxCell>
        <mxCell id="5I8DZp1YDCNz_HJZqCoI-61" value="" style="edgeStyle=orthogonalEdgeStyle;rounded=0;orthogonalLoop=1;jettySize=auto;html=1;" parent="WIyWlLk6GJQsqaUBKTNV-1" target="5I8DZp1YDCNz_HJZqCoI-60" edge="1">
          <mxGeometry relative="1" as="geometry">
            <mxPoint x="-263" y="-434" as="targetPoint" />
            <mxPoint x="-218" y="-514" as="sourcePoint" />
          </mxGeometry>
        </mxCell>
        <mxCell id="5I8DZp1YDCNz_HJZqCoI-63" value="" style="edgeStyle=orthogonalEdgeStyle;rounded=0;orthogonalLoop=1;jettySize=auto;html=1;" parent="WIyWlLk6GJQsqaUBKTNV-1" target="5I8DZp1YDCNz_HJZqCoI-62" edge="1">
          <mxGeometry relative="1" as="geometry">
            <mxPoint x="-468" y="-404" as="targetPoint" />
            <mxPoint x="-468" y="-494" as="sourcePoint" />
          </mxGeometry>
        </mxCell>
        <mxCell id="5I8DZp1YDCNz_HJZqCoI-64" value="Yes" style="edgeLabel;html=1;align=center;verticalAlign=middle;resizable=0;points=[];" parent="5I8DZp1YDCNz_HJZqCoI-63" vertex="1" connectable="0">
          <mxGeometry x="-0.1787" y="1" relative="1" as="geometry">
            <mxPoint as="offset" />
          </mxGeometry>
        </mxCell>
        <mxCell id="5I8DZp1YDCNz_HJZqCoI-79" style="edgeStyle=orthogonalEdgeStyle;rounded=0;orthogonalLoop=1;jettySize=auto;html=1;" parent="WIyWlLk6GJQsqaUBKTNV-1" target="5I8DZp1YDCNz_HJZqCoI-76" edge="1">
          <mxGeometry relative="1" as="geometry">
            <mxPoint x="-683" y="-924" as="sourcePoint" />
          </mxGeometry>
        </mxCell>
        <mxCell id="5I8DZp1YDCNz_HJZqCoI-80" value="No" style="edgeLabel;html=1;align=center;verticalAlign=middle;resizable=0;points=[];" parent="5I8DZp1YDCNz_HJZqCoI-79" vertex="1" connectable="0">
          <mxGeometry x="-0.2843" y="-3" relative="1" as="geometry">
            <mxPoint x="3" y="3" as="offset" />
          </mxGeometry>
        </mxCell>
        <mxCell id="5I8DZp1YDCNz_HJZqCoI-92" style="edgeStyle=orthogonalEdgeStyle;rounded=0;orthogonalLoop=1;jettySize=auto;html=1;" parent="WIyWlLk6GJQsqaUBKTNV-1" source="5I8DZp1YDCNz_HJZqCoI-76" edge="1">
          <mxGeometry relative="1" as="geometry">
            <mxPoint x="-516.125" y="-834" as="targetPoint" />
          </mxGeometry>
        </mxCell>
        <mxCell id="aPdemhnd4Vx7DEvTj6Hy-0" value="" style="ellipse;html=1;shape=startState;fillColor=#000000;strokeColor=#ff0000;" vertex="1" parent="WIyWlLk6GJQsqaUBKTNV-1">
          <mxGeometry x="-455.55999999999995" y="-870" width="30" height="30" as="geometry" />
        </mxCell>
        <mxCell id="aPdemhnd4Vx7DEvTj6Hy-1" value="" style="edgeStyle=orthogonalEdgeStyle;html=1;verticalAlign=bottom;endArrow=open;endSize=6;strokeColor=#ff0000;rounded=0;" edge="1" source="aPdemhnd4Vx7DEvTj6Hy-0" parent="WIyWlLk6GJQsqaUBKTNV-1" target="aPdemhnd4Vx7DEvTj6Hy-2">
          <mxGeometry relative="1" as="geometry">
            <mxPoint x="-440.55999999999995" y="-780" as="targetPoint" />
          </mxGeometry>
        </mxCell>
        <mxCell id="aPdemhnd4Vx7DEvTj6Hy-2" value="Entering a task" style="rounded=1;whiteSpace=wrap;html=1;arcSize=40;fontColor=#000000;fillColor=#ffffc0;strokeColor=#ff0000;" vertex="1" parent="WIyWlLk6GJQsqaUBKTNV-1">
          <mxGeometry x="-500.55999999999995" y="-800" width="120" height="40" as="geometry" />
        </mxCell>
        <mxCell id="aPdemhnd4Vx7DEvTj6Hy-3" value="" style="edgeStyle=orthogonalEdgeStyle;html=1;verticalAlign=bottom;endArrow=open;endSize=6;strokeColor=#ff0000;rounded=0;" edge="1" source="aPdemhnd4Vx7DEvTj6Hy-2" parent="WIyWlLk6GJQsqaUBKTNV-1" target="aPdemhnd4Vx7DEvTj6Hy-4">
          <mxGeometry relative="1" as="geometry">
            <mxPoint x="-440.55999999999995" y="-700" as="targetPoint" />
          </mxGeometry>
        </mxCell>
        <mxCell id="aPdemhnd4Vx7DEvTj6Hy-22" style="edgeStyle=orthogonalEdgeStyle;rounded=0;orthogonalLoop=1;jettySize=auto;html=1;strokeColor=#FF0000;endArrow=open;endFill=0;" edge="1" parent="WIyWlLk6GJQsqaUBKTNV-1" source="aPdemhnd4Vx7DEvTj6Hy-4" target="aPdemhnd4Vx7DEvTj6Hy-19">
          <mxGeometry relative="1" as="geometry" />
        </mxCell>
        <mxCell id="aPdemhnd4Vx7DEvTj6Hy-23" value="[task entered]" style="edgeLabel;html=1;align=center;verticalAlign=middle;resizable=0;points=[];" vertex="1" connectable="0" parent="aPdemhnd4Vx7DEvTj6Hy-22">
          <mxGeometry x="-0.3357" relative="1" as="geometry">
            <mxPoint y="7" as="offset" />
          </mxGeometry>
        </mxCell>
        <mxCell id="aPdemhnd4Vx7DEvTj6Hy-4" value="&lt;font style=&quot;font-size: 12px;&quot;&gt;decision node&lt;/font&gt;" style="rhombus;whiteSpace=wrap;html=1;fontColor=#000000;fillColor=#ffffc0;strokeColor=#ff0000;" vertex="1" parent="WIyWlLk6GJQsqaUBKTNV-1">
          <mxGeometry x="-480.30999999999995" y="-720" width="79.5" height="80" as="geometry" />
        </mxCell>
        <mxCell id="aPdemhnd4Vx7DEvTj6Hy-7" value="Error" style="rounded=1;whiteSpace=wrap;html=1;arcSize=40;fontColor=#000000;fillColor=#ffffc0;strokeColor=#ff0000;" vertex="1" parent="WIyWlLk6GJQsqaUBKTNV-1">
          <mxGeometry x="-330.05999999999995" y="-800" width="120" height="40" as="geometry" />
        </mxCell>
        <mxCell id="aPdemhnd4Vx7DEvTj6Hy-13" value="" style="edgeStyle=orthogonalEdgeStyle;rounded=0;orthogonalLoop=1;jettySize=auto;html=1;" edge="1" parent="WIyWlLk6GJQsqaUBKTNV-1" target="aPdemhnd4Vx7DEvTj6Hy-12">
          <mxGeometry relative="1" as="geometry">
            <mxPoint x="-243.02857142857147" y="-1179.9714285714285" as="sourcePoint" />
          </mxGeometry>
        </mxCell>
        <mxCell id="aPdemhnd4Vx7DEvTj6Hy-15" value="" style="edgeStyle=orthogonalEdgeStyle;rounded=0;orthogonalLoop=1;jettySize=auto;html=1;" edge="1" parent="WIyWlLk6GJQsqaUBKTNV-1" target="aPdemhnd4Vx7DEvTj6Hy-14">
          <mxGeometry relative="1" as="geometry">
            <mxPoint x="-100" y="-1160" as="sourcePoint" />
          </mxGeometry>
        </mxCell>
        <mxCell id="aPdemhnd4Vx7DEvTj6Hy-16" value="" style="edgeStyle=orthogonalEdgeStyle;html=1;align=left;verticalAlign=bottom;endArrow=open;endSize=6;strokeColor=#ff0000;rounded=0;entryX=1;entryY=0.5;entryDx=0;entryDy=0;" edge="1" parent="WIyWlLk6GJQsqaUBKTNV-1" source="aPdemhnd4Vx7DEvTj6Hy-7" target="aPdemhnd4Vx7DEvTj6Hy-2">
          <mxGeometry x="0.0009" relative="1" as="geometry">
            <mxPoint x="-170.55" y="-780.49" as="targetPoint" />
            <mxPoint x="-283.55" y="-760.49" as="sourcePoint" />
            <mxPoint as="offset" />
          </mxGeometry>
        </mxCell>
        <mxCell id="aPdemhnd4Vx7DEvTj6Hy-19" value="Selecting priority" style="rounded=1;whiteSpace=wrap;html=1;arcSize=40;fontColor=#000000;fillColor=#ffffc0;strokeColor=#ff0000;" vertex="1" parent="WIyWlLk6GJQsqaUBKTNV-1">
          <mxGeometry x="-500.55999999999995" y="-570" width="120" height="40" as="geometry" />
        </mxCell>
        <mxCell id="aPdemhnd4Vx7DEvTj6Hy-20" value="" style="edgeStyle=orthogonalEdgeStyle;html=1;verticalAlign=bottom;endArrow=open;endSize=8;strokeColor=#ff0000;rounded=0;entryX=0.497;entryY=0.023;entryDx=0;entryDy=0;entryPerimeter=0;" edge="1" source="aPdemhnd4Vx7DEvTj6Hy-19" parent="WIyWlLk6GJQsqaUBKTNV-1" target="aPdemhnd4Vx7DEvTj6Hy-35">
          <mxGeometry relative="1" as="geometry">
            <mxPoint x="-440.55999999999995" y="-480" as="targetPoint" />
          </mxGeometry>
        </mxCell>
        <mxCell id="aPdemhnd4Vx7DEvTj6Hy-25" style="edgeStyle=orthogonalEdgeStyle;rounded=0;orthogonalLoop=1;jettySize=auto;html=1;entryX=0.493;entryY=1.096;entryDx=0;entryDy=0;entryPerimeter=0;endArrow=open;endFill=0;strokeColor=#FF0000;" edge="1" parent="WIyWlLk6GJQsqaUBKTNV-1" source="aPdemhnd4Vx7DEvTj6Hy-4" target="aPdemhnd4Vx7DEvTj6Hy-7">
          <mxGeometry relative="1" as="geometry" />
        </mxCell>
        <mxCell id="aPdemhnd4Vx7DEvTj6Hy-26" value="[task is empty]" style="edgeLabel;html=1;align=center;verticalAlign=middle;resizable=0;points=[];" vertex="1" connectable="0" parent="aPdemhnd4Vx7DEvTj6Hy-25">
          <mxGeometry x="-0.1471" relative="1" as="geometry">
            <mxPoint x="-21" as="offset" />
          </mxGeometry>
        </mxCell>
        <mxCell id="aPdemhnd4Vx7DEvTj6Hy-31" style="edgeStyle=orthogonalEdgeStyle;rounded=0;orthogonalLoop=1;jettySize=auto;html=1;exitX=1;exitY=0.5;exitDx=0;exitDy=0;entryX=1;entryY=0.5;entryDx=0;entryDy=0;strokeColor=#FF0000;endArrow=open;endFill=0;" edge="1" parent="WIyWlLk6GJQsqaUBKTNV-1" source="aPdemhnd4Vx7DEvTj6Hy-35" target="aPdemhnd4Vx7DEvTj6Hy-37">
          <mxGeometry relative="1" as="geometry">
            <mxPoint x="-260.06" y="-350" as="targetPoint" />
            <mxPoint x="-410.59448275862087" y="-449.9655172413791" as="sourcePoint" />
            <Array as="points">
              <mxPoint x="-360.05999999999995" y="-450" />
              <mxPoint x="-360.05999999999995" y="-320" />
            </Array>
          </mxGeometry>
        </mxCell>
        <mxCell id="aPdemhnd4Vx7DEvTj6Hy-32" value="[priority selected]" style="edgeLabel;html=1;align=center;verticalAlign=middle;resizable=0;points=[];" vertex="1" connectable="0" parent="aPdemhnd4Vx7DEvTj6Hy-31">
          <mxGeometry x="-0.2173" y="-2" relative="1" as="geometry">
            <mxPoint x="2" y="18" as="offset" />
          </mxGeometry>
        </mxCell>
        <mxCell id="aPdemhnd4Vx7DEvTj6Hy-33" style="edgeStyle=orthogonalEdgeStyle;rounded=0;orthogonalLoop=1;jettySize=auto;html=1;exitX=0;exitY=0.5;exitDx=0;exitDy=0;entryX=0;entryY=0.5;entryDx=0;entryDy=0;strokeColor=#FF0000;endArrow=open;endFill=0;" edge="1" parent="WIyWlLk6GJQsqaUBKTNV-1" source="aPdemhnd4Vx7DEvTj6Hy-35" target="aPdemhnd4Vx7DEvTj6Hy-37">
          <mxGeometry relative="1" as="geometry">
            <mxPoint x="-580.06" y="-340" as="targetPoint" />
            <mxPoint x="-470.52551724137925" y="-449.9655172413791" as="sourcePoint" />
            <Array as="points">
              <mxPoint x="-520.06" y="-450" />
              <mxPoint x="-520.06" y="-320" />
            </Array>
          </mxGeometry>
        </mxCell>
        <mxCell id="aPdemhnd4Vx7DEvTj6Hy-34" value="[priority not selected]" style="edgeLabel;html=1;align=center;verticalAlign=middle;resizable=0;points=[];" vertex="1" connectable="0" parent="aPdemhnd4Vx7DEvTj6Hy-33">
          <mxGeometry x="-0.1865" y="1" relative="1" as="geometry">
            <mxPoint x="-11" y="14" as="offset" />
          </mxGeometry>
        </mxCell>
        <mxCell id="aPdemhnd4Vx7DEvTj6Hy-35" value="&lt;font style=&quot;font-size: 12px;&quot;&gt;decision node&lt;/font&gt;" style="rhombus;whiteSpace=wrap;html=1;fontColor=#000000;fillColor=#ffffc0;strokeColor=#ff0000;" vertex="1" parent="WIyWlLk6GJQsqaUBKTNV-1">
          <mxGeometry x="-480.30999999999995" y="-490" width="79.5" height="80" as="geometry" />
        </mxCell>
        <mxCell id="aPdemhnd4Vx7DEvTj6Hy-38" style="edgeStyle=orthogonalEdgeStyle;rounded=0;orthogonalLoop=1;jettySize=auto;html=1;exitX=0.5;exitY=1;exitDx=0;exitDy=0;entryX=0.5;entryY=0;entryDx=0;entryDy=0;strokeColor=#FF0000;endArrow=open;endFill=0;" edge="1" parent="WIyWlLk6GJQsqaUBKTNV-1" source="aPdemhnd4Vx7DEvTj6Hy-37" target="aPdemhnd4Vx7DEvTj6Hy-39">
          <mxGeometry relative="1" as="geometry">
            <mxPoint x="-440.46000000000004" y="-230" as="targetPoint" />
          </mxGeometry>
        </mxCell>
        <mxCell id="aPdemhnd4Vx7DEvTj6Hy-37" value="&lt;font style=&quot;font-size: 12px;&quot;&gt;merge &lt;br&gt;node&lt;/font&gt;" style="rhombus;whiteSpace=wrap;html=1;fontColor=#000000;fillColor=#ffffc0;strokeColor=#ff0000;" vertex="1" parent="WIyWlLk6GJQsqaUBKTNV-1">
          <mxGeometry x="-480.30999999999995" y="-360" width="79.5" height="80" as="geometry" />
        </mxCell>
        <mxCell id="aPdemhnd4Vx7DEvTj6Hy-39" value="" style="ellipse;html=1;shape=endState;fillColor=#000000;strokeColor=#ff0000;" vertex="1" parent="WIyWlLk6GJQsqaUBKTNV-1">
          <mxGeometry x="-455.55999999999995" y="-240" width="30" height="30" as="geometry" />
        </mxCell>
        <mxCell id="aPdemhnd4Vx7DEvTj6Hy-42" value="«Annotation»&lt;br&gt;&lt;b&gt;Process of creating a task&lt;/b&gt;" style="html=1;dropTarget=0;whiteSpace=wrap;fillColor=#fff2cc;strokeColor=#d6b656;" vertex="1" parent="WIyWlLk6GJQsqaUBKTNV-1">
          <mxGeometry x="-750" y="-1110" width="180" height="90" as="geometry" />
        </mxCell>
        <mxCell id="aPdemhnd4Vx7DEvTj6Hy-43" value="" style="shape=module;jettyWidth=8;jettyHeight=4;" vertex="1" parent="aPdemhnd4Vx7DEvTj6Hy-42">
          <mxGeometry x="1" width="20" height="20" relative="1" as="geometry">
            <mxPoint x="-27" y="7" as="offset" />
          </mxGeometry>
        </mxCell>
      </root>
    </mxGraphModel>
  </diagram>
</mxfile>
